<?xml version="1.0" encoding="utf-8"?>
<!-- Generator: Adobe Illustrator 14.0.0, SVG Export Plug-In . SVG Version: 6.00 Build 43363)  -->
<!DOCTYPE svg PUBLIC "-//W3C//DTD SVG 1.1//EN" "http://www.w3.org/Graphics/SVG/1.1/DTD/svg11.dtd">
<svg version="1.1" id="Layer_1" xmlns="http://www.w3.org/2000/svg" xmlns:xlink="http://www.w3.org/1999/xlink" x="0px" y="0px"
	 width="712.583px" height="132.501px" viewBox="0 0 712.583 132.501" enable-background="new 0 0 712.583 132.501"
	 xml:space="preserve">
<text transform="matrix(1 0 0 1 136.3594 107.9697)" fill="#FEB273" font-family="'DINAlternate-Bold'" font-size="141.9072" letter-spacing="10">sidekick</text>
<g>
	<path fill="#FEB273" d="M64.867,10.308c-30.896,0-55.94,25.047-55.94,55.941s25.045,55.944,55.94,55.944
		c30.897,0,55.942-25.045,55.942-55.944C120.808,35.354,95.766,10.308,64.867,10.308z M30.922,32.323
		c9.396,1.58,38.87,6.165,43.183,2.28c4.175-3.763,5.482-10.235,5.942-13.883c1.017,0.34,2.019,0.707,3.001,1.109
		c-1.925,4.263-6.865,13.516-1.876,14.439c3.794,0.704,13.235-0.667,19.67-1.771c3.466,3.923,6.303,8.416,8.344,13.322H66.071
		h-2.896h-0.161h-0.001H20.545C22.976,41.984,26.519,36.726,30.922,32.323z M100.552,59.519c0,3.126-2.531,5.658-5.658,5.658H81.815
		c-3.128,0-5.66-2.531-5.66-5.658s2.532-5.657,5.66-5.657h13.078C98.021,53.861,100.552,56.394,100.552,59.519z M53.372,59.519
		c0,3.239-2.625,5.863-5.863,5.863H33.953c-3.238,0-5.862-2.624-5.862-5.863c0-3.238,2.624-5.862,5.862-5.862h13.556
		C50.747,53.657,53.372,56.28,53.372,59.519z M64.867,114.244c-26.508,0-47.992-21.489-47.992-47.995
		c0-0.695,0.024-1.384,0.052-2.069c5.794,4.095,14.597,11.759,24.151,13.435c9.239,1.622,20.611-12.243,21.829-13.602
		c0.071-0.079,0.105-0.119,0.105-0.119l0.001-0.124v0.124c1.096-1.186,2.182-0.939,3.058,0c0.188,0.201,12.162,15.434,21.936,13.721
		s18.772-9.707,24.557-13.725c0.08-0.055,0.154-0.095,0.229-0.146c0.042,0.83,0.065,1.665,0.065,2.506
		C112.859,92.755,91.376,114.244,64.867,114.244z"/>
</g>
</svg>
